<svg width="512" height="512" viewBox="0 0 512 512" fill="none" xmlns="http://www.w3.org/2000/svg">
<rect width="512" height="512" rx="32" fill="url(#paint0_linear_102_3)"/>
<path d="M267.988 398.34C252.116 398.34 239.06 394.5 228.82 386.82C218.58 378.884 212.564 368.004 210.772 354.18H210.388V394.5H175.828V114.18H210.388V175.62L209.62 223.62H210.004C212.052 210.052 218.196 199.3 228.436 191.364C238.932 183.428 252.116 179.46 267.988 179.46C289.236 179.46 306.132 186.5 318.676 200.58C331.22 214.66 337.492 233.86 337.492 258.18V320.004C337.492 344.068 331.22 363.14 318.676 377.22C306.132 391.3 289.236 398.34 267.988 398.34ZM256.468 368.388C271.06 368.388 282.452 364.548 290.644 356.868C298.836 349.188 302.932 336.772 302.932 319.62V258.18C302.932 240.772 298.836 228.356 290.644 220.932C282.452 213.252 271.06 209.412 256.468 209.412C242.388 209.412 231.124 213.892 222.676 222.852C214.484 231.812 210.388 244.228 210.388 260.1V317.7C210.388 333.572 214.484 345.988 222.676 354.948C231.124 363.908 242.388 368.388 256.468 368.388Z" fill="#D0D0D9"/>
<defs>
<linearGradient id="paint0_linear_102_3" x1="450.5" y1="68" x2="225" y2="422" gradientUnits="userSpaceOnUse">
<stop offset="0.122136" stop-color="#3B3B52"/>
<stop offset="1" stop-color="#262633"/>
</linearGradient>
</defs>
</svg>
